Coordinates
version=1
nRows=32
nColumns=22
inDegrees=yes

Units are S.I. units (second, meters, Newtons, ...)
If the header above contains a line with 'inDegrees', this indicates whether rotational values are in degrees (yes) or radians (no).

endheader
time	pelvis_tilt	pelvis_list	pelvis_rotation	pelvis_tx	pelvis_ty	pelvis_tz	hip_flexion_r	hip_adduction_r	hip_rotation_r	knee_angle_r	ankle_angle_r	subtalar_angle_r	hip_flexion_l	hip_adduction_l	hip_rotation_l	knee_angle_l	ankle_angle_l	subtalar_angle_l	lumbar_extension	lumbar_bending	lumbar_rotation
      3.87000000	      0.50860119	     -8.86644931	     81.91737579	      0.36267305	      0.88238580	     -0.56655451	     11.03953131	      2.49840929	     -0.00806033	     -5.30189594	      8.94100763	      0.99086174	     15.40536379	     -9.60083750	     -5.75122592	    -14.94721495	      9.15573712	      5.68933901	      2.44121684	      4.41585756	     11.54370383
      3.88000000	      0.44117463	     -8.88066539	     81.96399158	      0.36194464	      0.88249943	     -0.56813887	     11.01204133	      2.36658478	     -0.06204357	     -5.40613715	      9.05776225	      0.98313642	     15.12836445	     -9.44647397	     -5.81946113	    -14.56964803	      9.12491996	      5.75039974	      2.57671979	      4.28125628	     11.46565805
      3.89000000	      0.39174332	     -8.89703186	     82.00961398	      0.36118440	      0.88258648	     -0.56966663	     10.98869648	      2.25174823	     -0.12999901	     -5.51018751	      9.17086125	      0.97973768	     14.86330877	     -9.30910153	     -5.89952141	    -14.20661148	      9.10621840	      5.79490604	      2.70262649	      4.17218593	     11.39735420
      3.90000000	      0.35898235	     -8.91685649	     82.05426525	      0.36042542	      0.88263992	     -0.57113362	     10.97124037	      2.15556633	     -0.21497853	     -5.61351572	      9.28016531	      0.97893020	     14.61033085	     -9.19003432	     -5.98128260	    -13.85548129	      9.10013167	      5.82863225	      2.82049453	      4.07903928	     11.34383219
      3.91000000	      0.34061623	     -8.93795354	     82.10164059	      0.35964471	      0.88266621	     -0.57254540	     10.95493464	      2.07271672	     -0.31236394	     -5.71328439	      9.38754403	      0.97890217	     14.36885853	     -9.08597404	     -6.06177536	    -13.51755933	      9.10482190	      5.85673933	      2.92991081	      4.00254311	     11.29783903
      3.92000000	      0.34336477	     -8.97491380	     82.15789837	      0.35883563	      0.88264229	     -0.57391494	     10.94583672	      2.01207621	     -0.42057231	     -5.79387686	      9.47515741	      0.97510060	     14.15801976	     -9.00451348	     -6.12261724	    -13.20175948	      9.14547445	      5.87670517	      3.04960457	      3.95003298	     11.27908774
      3.93000000	      0.32076089	     -8.96640371	     82.23147017	      0.35794144	      0.88266485	     -0.57527703	     10.89023223	      1.90892468	     -0.51216792	     -5.87562155	      9.61207620	      0.97217742	     13.90624506	     -8.88024432	     -6.18461905	    -12.87983309	      9.13373862	      5.90460889	      3.11642433	      3.86539689	     11.21095988
      3.94000000	      0.30579195	     -8.95489873	     82.32196957	      0.35698532	      0.88267333	     -0.57664800	     10.80911256	      1.80787901	     -0.59493679	     -5.92010771	      9.73107354	      0.96805130	     13.65976708	     -8.75680420	     -6.21823613	    -12.56803617	      9.14623385	      5.92513968	      3.18122136	      3.78865865	     11.16498357
      3.95000000	      0.28502156	     -8.93639719	     82.43240517	      0.35596536	      0.88267558	     -0.57801505	     10.71002843	      1.69276797	     -0.66735529	     -5.94664068	      9.85341684	      0.96066639	     13.41709965	     -8.61922834	     -6.21924093	    -12.26425580	      9.16189387	      5.94048265	      3.23990231	      3.70298830	     11.11965693
      3.96000000	      0.26044004	     -8.91144394	     82.55876894	      0.35490051	      0.88268121	     -0.57937154	     10.59614723	      1.56810127	     -0.73403080	     -5.95948244	      9.97580760	      0.95320102	     13.17889375	     -8.47196463	     -6.19766955	    -11.97183542	      9.17207810	      5.95250391	      3.29141762	      3.61289833	     11.07262144
      3.97000000	      0.23808311	     -8.88551926	     82.69568780	      0.35383380	      0.88268918	     -0.58070238	     10.47631382	      1.44466887	     -0.80811953	     -5.96337583	     10.09417151	      0.94914451	     12.95041463	     -8.32665939	     -6.15778339	    -11.69160879	      9.17765453	      5.96423773	      3.34033438	      3.52146724	     11.03157077
      3.98000000	      0.22351594	     -8.86917935	     82.83952579	      0.35279963	      0.88268681	     -0.58199040	     10.36606060	      1.33226304	     -0.89348924	     -5.96415056	     10.20426402	      0.95009782	     12.74356410	     -8.19550870	     -6.10114564	    -11.42836867	      9.18799921	      5.97983049	      3.39697665	      3.43321465	     11.00205836
      3.99000000	      0.21642564	     -8.85600787	     82.98516346	      0.35181579	      0.88269299	     -0.58324167	     10.26059479	      1.23155350	     -0.99452808	     -5.96719057	     10.30696826	      0.95665995	     12.54802470	     -8.07872162	     -6.03036228	    -11.17794192	      9.19383640	      6.00213641	      3.45350774	      3.34694906	     10.98016068
      4.00000000	      0.22150862	     -8.86321452	     83.12543471	      0.35088504	      0.88267831	     -0.58443276	     10.18324154	      1.15139290	     -1.08458165	     -5.97861721	     10.39138170	      0.96224077	     12.38461246	     -7.98436628	     -5.94022878	    -10.94916291	      9.22911416	      6.02817823	      3.52744608	      3.27187638	     10.98456674
      4.01000000	      0.23008295	     -8.85568370	     83.26657097	      0.34998289	      0.88270579	     -0.58563059	     10.08862016	      1.07413244	     -1.20748650	     -5.98816850	     10.47886498	      0.97332813	     12.20202915	     -7.89610915	     -5.86581961	    -10.71605087	      9.22963360	      6.06103013	      3.58561826	      3.19864254	     10.97597078
      4.02000000	      0.24451837	     -8.84261256	     83.39935329	      0.34912567	      0.88275103	     -0.58679696	      9.99048326	      1.00682740	     -1.31893489	     -5.99974024	     10.55521614	      0.99006985	     12.01769131	     -7.81986709	     -5.79215486	    -10.49366567	      9.23538561	      6.09674415	      3.63421985	      3.12804078	     10.97487749
      4.03000000	      0.26058851	     -8.83020264	     83.52333566	      0.34828995	      0.88280065	     -0.58792371	      9.89904333	      0.94459729	     -1.42234515	     -6.01670493	     10.62584113	      1.00917015	     11.83994566	     -7.74944650	     -5.72479064	    -10.28247739	      9.24367068	      6.13149370	      3.67917534	      3.05962904	     10.97874281
      4.04000000	      0.27647364	     -8.82383955	     83.63771853	      0.34746011	      0.88283780	     -0.58900342	      9.82226384	      0.88494816	     -1.51447826	     -6.04185634	     10.69252561	      1.02702850	     11.67665696	     -7.68244968	     -5.66233853	    -10.08481106	      9.25994589	      6.16050717	      3.72699322	      2.99421533	     10.98767452
      4.05000000	      0.28749385	     -8.80367721	     83.74888091	      0.34662384	      0.88289297	     -0.59005566	      9.73350758	      0.81845178	     -1.60913658	     -6.06698557	     10.76514601	      1.05444628	     11.50415414	     -7.60979654	     -5.61418414	     -9.89217921	      9.25363440	      6.18594650	      3.75549877	      2.92448557	     10.97928471
      4.06000000	      0.30186455	     -8.80950146	     83.84513990	      0.34578103	      0.88289331	     -0.59101226	      9.69039118	      0.76041704	     -1.67270466	     -6.11278411	     10.82241088	      1.06899528	     11.37343084	     -7.54611416	     -5.54181593	     -9.72289860	      9.29346309	      6.19918865	      3.80429432	      2.86658953	     11.00137515
      4.07000000	      0.30613384	     -8.79985619	     83.94212214	      0.34492803	      0.88290822	     -0.59194888	      9.63299388	      0.68932867	     -1.75710093	     -6.15799203	     10.89755052	      1.09360117	     11.22889759	     -7.46953454	     -5.48106528	     -9.55073829	      9.29906940	      6.20404528	      3.83479010	      2.79596980	     10.99788028
      4.08000000	      0.31307417	     -8.80509433	     84.02614881	      0.34406431	      0.88288689	     -0.59278978	      9.60500279	      0.62439335	     -1.81036057	     -6.21518595	     10.95675716	      1.11043354	     11.11524176	     -7.39877125	     -5.40067235	     -9.40229348	      9.34260991	      6.20429474	      3.87143264	      2.73546512	     11.01776468
      4.09000000	      0.31095568	     -8.80857252	     84.10607379	      0.34319053	      0.88285960	     -0.59359739	      9.57893400	      0.54930365	     -1.87404263	     -6.27187078	     11.02622350	      1.13138293	     11.00513072	     -7.31816329	     -5.33430426	     -9.25747969	      9.36982600	      6.19699757	      3.90412707	      2.66742207	     11.02453230
      4.10000000	      0.30240414	     -8.81427265	     84.17664961	      0.34232099	      0.88281958	     -0.59434349	      9.56259929	      0.46936999	     -1.92803227	     -6.33197251	     11.09649094	      1.15608273	     10.90489515	     -7.23303951	     -5.27159610	     -9.12132908	      9.39540299	      6.18292666	      3.93327252	      2.59380424	     11.02974330
      4.11000000	      0.28681374	     -8.82597610	     84.23792802	      0.34144592	      0.88276553	     -0.59503913	      9.55948149	      0.38354701	     -1.97468769	     -6.39470440	     11.16602987	      1.18148221	     10.81588001	     -7.14137040	     -5.21784776	     -8.98979385	      9.42096358	      6.16528752	      3.96470979	      2.51783632	     11.03215859
      4.12000000	      0.26277599	     -8.84125996	     84.29172195	      0.34056617	      0.88270292	     -0.59568034	      9.56961377	      0.28942673	     -2.01546501	     -6.46488712	     11.23972585	      1.20850233	     10.73380696	     -7.04172556	     -5.17101807	     -8.85834689	      9.43781641	      6.14499715	      3.99542708	      2.43640279	     11.02759006
      4.13000000	      0.23303391	     -8.85979068	     84.33845156	      0.33969634	      0.88263654	     -0.59627131	      9.59165013	      0.19187078	     -2.04909236	     -6.54191285	     11.31487319	      1.23661831	     10.65741493	     -6.93744180	     -5.13145293	     -8.72613904	      9.44924536	      6.12503546	      4.02521428	      2.35010349	     11.01624904
      4.14000000	      0.20332674	     -8.88066454	     84.37906791	      0.33883956	      0.88256998	     -0.59681590	      9.62150966	      0.09625455	     -2.07434227	     -6.62188062	     11.38654382	      1.26349762	     10.58692782	     -6.83586899	     -5.10073481	     -8.59708771	      9.46020483	      6.11063196	      4.05341385	      2.26537146	     10.99916400
      4.15000000	      0.17202694	     -8.90101504	     84.41352122	      0.33800026	      0.88250818	     -0.59731777	      9.65750799	      0.00085433	     -2.09325665	     -6.70818016	     11.45991920	      1.29139809	     10.51824209	     -6.73491267	     -5.07603108	     -8.46965192	      9.46659405	      6.10342731	      4.07826699	      2.17889480	     10.97674145
      4.16000000	      0.14527552	     -8.92195703	     84.44190071	      0.33717760	      0.88245346	     -0.59777468	      9.69577427	     -0.08897130	     -2.10369433	     -6.79121963	     11.52425087	      1.31745858	     10.45562630	     -6.64282466	     -5.06061674	     -8.34993029	      9.47821913	      6.10525851	      4.09852194	      2.09974152	     10.95279046
      4.17000000	      0.12126964	     -8.94266335	     84.46318475	      0.33637045	      0.88241023	     -0.59819378	      9.73622994	     -0.17380210	     -2.10802148	     -6.87251350	     11.58107426	      1.34158244	     10.39855368	     -6.55570856	     -5.05411319	     -8.24018098	      9.49094368	      6.11348680	      4.11513292	      2.02734100	     10.92642740
      4.18000000	      0.09719841	     -8.96346590	     84.47673652	      0.33559263	      0.88237684	     -0.59857225	      9.78104627	     -0.25588990	     -2.10895167	     -6.95544030	     11.63397996	      1.36689157	     10.34835132	     -6.47236417	     -5.05794817	     -8.14082017	      9.49932736	      6.12404974	      4.12712964	      1.95625480	     10.89806376
